Hanif_Deep_2_5_grf.mot
version=1
nRows=21
nColumns=19
inDegrees=yes
endheader
time	right_ground_force_vx	right_ground_force_vy	right_ground_force_vz	right_ground_force_px	right_ground_force_py	right_ground_force_pz	right_ground_torque_x	right_ground_torque_y	right_ground_torque_z	left_ground_force_vx	left_ground_force_vy	left_ground_force_vz	left_ground_force_px	left_ground_force_py	left_ground_force_pz	left_ground_torque_x	left_ground_torque_y	left_ground_torque_z
2.610000	-12.068700	291.327000	17.970000	0.235785	0.000000	-1.421540	-24.683300	0.212423	10.540700	-14.364100	275.749000	-12.163400	0.244826	0.000000	-0.976932	20.704800	-4.500210	12.630100
2.615000	-11.705900	293.440000	18.077900	0.235225	0.000000	-1.422400	-24.614300	0.432860	10.462500	-13.677000	276.927000	-12.292000	0.244890	0.000000	-0.977627	20.977000	-4.720100	12.710600
2.620000	-11.688900	295.627000	18.081800	0.234393	0.000000	-1.422960	-24.630400	0.493344	10.295100	-13.122000	279.150000	-13.367000	0.244790	0.000000	-0.977687	21.153400	-4.899730	12.813200
2.625000	-10.829800	301.700000	19.012000	0.233712	0.000000	-1.422430	-25.296700	0.763870	10.316300	-12.142400	283.003000	-14.077500	0.244082	0.000000	-0.977215	21.285000	-5.050710	12.802200
2.630000	-10.885600	308.696000	19.289300	0.233709	0.000000	-1.423870	-25.435700	0.764693	10.550100	-10.321900	287.257000	-15.278200	0.244363	0.000000	-0.978049	21.801100	-5.301390	13.102600
2.635000	-10.625500	313.247000	20.010300	0.231995	0.000000	-1.424810	-25.514300	0.933982	10.178000	-9.597430	290.858000	-15.505600	0.244236	0.000000	-0.977643	21.935800	-5.426750	13.230500
2.640000	-9.279520	315.307000	19.660000	0.230940	0.000000	-1.425100	-25.579000	1.066060	9.906740	-8.041610	292.128000	-16.123400	0.243488	0.000000	-0.977568	21.972300	-5.563950	13.083000
2.645000	-9.933270	319.078000	20.242100	0.230328	0.000000	-1.426710	-25.382100	1.239170	9.844400	-7.547130	295.836000	-16.565000	0.243262	0.000000	-0.977782	22.304200	-5.813580	13.195800
2.650000	-8.706630	321.620000	20.313600	0.229686	0.000000	-1.426690	-25.581200	1.373300	9.716010	-6.668830	301.237000	-17.336100	0.243397	0.000000	-0.976827	22.399000	-5.970410	13.488000
2.655000	-8.930070	325.745000	20.350100	0.228653	0.000000	-1.427610	-25.613200	1.522590	9.508930	-6.119540	306.773000	-17.916800	0.243275	0.000000	-0.975845	22.492400	-6.081870	13.702100
2.660000	-8.475330	324.847000	20.658900	0.227765	0.000000	-1.428400	-25.281500	1.590980	9.198830	-5.917980	307.222000	-18.256100	0.243025	0.000000	-0.977047	22.889700	-6.086160	13.652700
2.665000	-8.021100	327.666000	21.203200	0.226456	0.000000	-1.429880	-25.013600	1.738570	8.857080	-5.950040	310.870000	-18.630100	0.242749	0.000000	-0.975413	22.652800	-6.178520	13.733200
2.670000	-7.703300	328.636000	22.518300	0.225578	0.000000	-1.430570	-24.862000	1.911840	8.616060	-4.760240	312.278000	-18.581500	0.242772	0.000000	-0.975781	22.840300	-6.228960	13.795200
2.675000	-7.377060	330.445000	23.070900	0.225340	0.000000	-1.430730	-24.943400	1.976920	8.590950	-5.033200	314.314000	-18.757600	0.243141	0.000000	-0.975775	22.992400	-6.201150	14.000000
2.680000	-7.187390	331.008000	24.098400	0.224467	0.000000	-1.432280	-24.468900	1.973710	8.324080	-4.679990	313.028000	-17.822500	0.242583	0.000000	-0.975690	22.864100	-6.262300	13.748900
2.685000	-7.126000	329.882000	24.472100	0.223108	0.000000	-1.433490	-23.987800	2.066510	7.856350	-4.562770	311.277000	-17.461800	0.242185	0.000000	-0.975774	22.759300	-6.201890	13.539200
2.690000	-6.751880	327.894000	25.146900	0.222383	0.000000	-1.433360	-23.884900	2.213190	7.589860	-3.236180	312.796000	-16.995100	0.241584	0.000000	-0.974722	22.508300	-6.218720	13.396200
2.695000	-6.838230	329.670000	24.903000	0.221521	0.000000	-1.434140	-23.759600	2.296970	7.346070	-2.521480	309.607000	-16.891600	0.241363	0.000000	-0.975009	22.352000	-6.190770	13.192100
2.700000	-7.959360	331.900000	24.758900	0.220729	0.000000	-1.434220	-23.902600	2.249570	7.128750	-1.476900	311.099000	-16.142700	0.241102	0.000000	-0.975045	22.446800	-6.317930	13.154700
2.705000	-8.217170	332.574000	24.220400	0.219422	0.000000	-1.434440	-23.879200	2.251960	6.700500	-0.838119	310.358000	-15.369700	0.240438	0.000000	-0.974793	22.300400	-6.316910	12.896800
2.710000	-8.622360	334.472000	23.183300	0.219215	0.000000	-1.435620	-23.626100	2.315510	6.660400	0.528489	309.896000	-14.716200	0.239274	0.000000	-0.974053	22.007400	-6.322500	12.496800
